<svg version="1" xmlns="http://www.w3.org/2000/svg" width="1365.333" height="1365.333" viewBox="0 0 1024.000000 1024.000000"><path d="M220.5 107.5c-13.4 2.5-23.2 5.4-33.3 9.8-35.5 15.7-65.2 49.2-75.8 85.5-5.5 19.3-5.3 3.5-5.3 309.7 0 274.1.1 283.3 1.9 293.4 5.4 29.4 17.4 51.7 39.8 73.8 9.5 9.4 22.6 18.9 33.6 24.5 6.3 3.2 20.3 8.6 24.6 9.4 1.4.3 4.5 1 7 1.5 2.5.6 6.3 1.3 8.5 1.7 5.3.9 574.5.9 581 0 13.2-1.9 36.5-9.6 44.5-14.8 15.2-9.9 21.7-14.8 29.5-22.5 8.5-8.3 18.4-20.6 21.5-26.5.7-1.4 1.7-2.7 2.1-3 2.3-1.6 11.4-24.2 13.9-34.5 4-16.7 3.9-9.7 3.9-303 0-291.8 0-290.2-3.9-304.5-8.7-32.5-28.1-59.6-56.5-79.2-16.1-11.1-29.9-16.4-56-21.7-8.1-1.6-572-1.2-581 .4zm353.8 174.9c12.9.8 16.1 1.1 20.2 1.9 1.7.4 4.8.9 7 1.2 15.1 2.2 35 9.7 46.8 17.7 12.7 8.7 31.8 29.3 37.7 40.8 2.7 5.4 5.8 13.6 6.6 17.5.2 1.1.6 3.1.9 4.5.3 1.4.8 3.6 1.1 5 .3 1.4.8 3.8 1.1 5.5.9 4.2 1 33.8.1 40.8-4.5 35.2-23.6 62-56.1 78.8-5.5 2.8-9.6 5.6-9.4 6.2.2.7.8 1.2 1.3 1.3 2.3.1 8.5 1.8 15.4 4.1 35.9 12 58.6 37.8 67.4 76.3 5 21.7 5.4 50.4 1.1 71-7.4 35.2-27.7 60.9-62 78.5-7.8 4.1-20.4 9.4-23.6 10-.9.2-4.7 1.2-8.5 2.3-16.3 4.8-35 8.3-45.8 8.8-6.1.2-15.4.7-20.6 1-5.2.3-58.7.7-118.7.9l-109.3.4V282.1l2.3-.3c4.3-.6 233.9 0 245 .6z"/><path d="M408.9 351c-.5 2.5-.2 128.4.2 129.2 1 1.5 144.3 1.4 151.1-.2 6.6-1.5 19.4-5.7 23.1-7.7 11.9-6.1 24-21.3 28.9-36.3 1.7-5.1 2.2-9.5 2.4-21 .2-8-.1-16.8-.7-19.5-.5-2.8-1.1-6.1-1.4-7.4-1.4-7.5-8.1-16.8-17.1-23.2-11.5-8.4-23-12.3-39.9-13.5-10.1-.7-146.5-1.1-146.6-.4zM408.8 542.2c-.3 1.1-.2 140.5.1 144.4.1.8 22.7 1.1 81.9.9 80.5-.1 81.8-.2 90.6-2.3 21.6-5.4 28.6-8.9 37.5-18.8 15.5-17.5 20.8-52.9 11.9-80.4-3.5-11.1-8.6-20.4-14-25.8-7.9-7.9-23.7-15.4-35.8-16.9-2.5-.3-6.5-.9-9-1.4-2.5-.4-40.1-.8-83.6-.9-62.9 0-79.3.2-79.6 1.2z"/></svg>